<?xml version="1.0" encoding="UTF-8" standalone="no"?>
<!-- Generator: Adobe Illustrator 14.0.0, SVG Export Plug-In . SVG Version: 6.00 Build 43363)  -->

<svg
   xmlns:dc="http://purl.org/dc/elements/1.1/"
   xmlns:cc="http://creativecommons.org/ns#"
   xmlns:rdf="http://www.w3.org/1999/02/22-rdf-syntax-ns#"
   xmlns:svg="http://www.w3.org/2000/svg"
   xmlns="http://www.w3.org/2000/svg"
   xmlns:sodipodi="http://sodipodi.sourceforge.net/DTD/sodipodi-0.dtd"
   xmlns:inkscape="http://www.inkscape.org/namespaces/inkscape"
   version="1.0"
   id="Layer_1"
   x="0px"
   y="0px"
   width="98.933px"
   height="100px"
   viewBox="0 0 98.933 100"
   enable-background="new 0 0 98.933 100"
   xml:space="preserve"
   inkscape:version="0.48.2 r9819"
   sodipodi:docname="sunshine_plus_temp.svg"><metadata
   id="metadata4499"><rdf:RDF><cc:Work
       rdf:about=""><dc:format>image/svg+xml</dc:format><dc:type
         rdf:resource="http://purl.org/dc/dcmitype/StillImage" /><dc:title /></cc:Work></rdf:RDF></metadata><defs
   id="defs4497" /><sodipodi:namedview
   pagecolor="#ffffff"
   bordercolor="#666666"
   borderopacity="1"
   objecttolerance="10"
   gridtolerance="10"
   guidetolerance="10"
   inkscape:pageopacity="0"
   inkscape:pageshadow="2"
   inkscape:window-width="1138"
   inkscape:window-height="671"
   id="namedview4495"
   showgrid="false"
   inkscape:zoom="2.36"
   inkscape:cx="-22.779263"
   inkscape:cy="50"
   inkscape:window-x="0"
   inkscape:window-y="0"
   inkscape:window-maximized="0"
   inkscape:current-layer="Layer_1" />
<path
   d="M22.714,32.172l0.803-1.124c0.168-0.233,0.36-0.456,0.536-0.688l0.027,0.063l0.93-1.113  c1.218-1.464,2.606-2.883,4.054-4.104l1.114-0.94l-0.053-0.026c0.202-0.151,0.393-0.324,0.598-0.474l1.1-0.806l-17.286-8.352  l0.965,2.071L22.714,32.172z"
   id="path4477"
   style="fill:#ffcc00" />
<path
   d="M17.846,55.055c-0.042-0.267-0.06-0.542-0.096-0.812l0.076,0.025l-0.128-1.449c-0.081-0.938-0.13-1.878-0.13-2.819  c0-0.998,0.045-1.984,0.13-2.958l0.132-1.459l-0.078,0.032c0.035-0.273,0.052-0.545,0.094-0.812l0.217-1.359l-1.282,0.46L0,49.929  l18.058,6.48L17.846,55.055z"
   id="path4479"
   style="fill:#ffcc00" />
<path
   d="M45.2,17.936l-0.027,0.081l1.434-0.133c0.948-0.082,1.899-0.131,2.859-0.131c0.96,0,1.912,0.049,2.86,0.131l1.433,0.133  l-0.028-0.081c0.269,0.037,0.542,0.054,0.808,0.098l1.339,0.219L49.465,0l-0.759,2.163l-5.656,16.089l1.344-0.219  C44.66,17.99,44.933,17.973,45.2,17.936z"
   id="path4481"
   style="fill:#ffcc00" />
<path
   d="M68.833,24.266h-0.007l0.263,0.223c0.54,0.426,1.031,0.906,1.541,1.366c0.936,0.838,1.823,1.735,2.657,2.676  c0.437,0.492,0.885,0.971,1.29,1.49l0.337,0.411l0.006-0.012c0.162,0.211,0.337,0.412,0.493,0.63l0.795,1.118l8.27-17.568  l-2.057,0.995l-15.312,7.372l1.1,0.801C68.424,23.923,68.624,24.101,68.833,24.266z"
   id="path4483"
   style="fill:#ffcc00" />
<path
   d="M80.867,56.479l18.065-6.486l-18.065-6.475l0.218,1.354c0.04,0.267,0.061,0.542,0.096,0.812l-0.078-0.032l0.131,1.459  c0.08,0.956,0.13,1.919,0.13,2.89c0,0.968-0.05,1.932-0.13,2.887l-0.131,1.456l0.078-0.029c-0.035,0.271-0.056,0.545-0.096,0.812  L80.867,56.479z"
   id="path4485"
   style="fill:#ffcc00" />
<path
   d="M53.734,82.062l0.028-0.081l-1.438,0.133c-0.948,0.082-1.899,0.132-2.86,0.132c-0.96,0-1.911-0.05-2.859-0.132l-1.438-0.133  l0.029,0.081c-0.267-0.039-0.539-0.058-0.802-0.1l-1.339-0.214l0.452,1.29L49.461,100l6.415-18.255l-1.339,0.217  C54.273,82.004,54.002,82.022,53.734,82.062z"
   id="path4487"
   style="fill:#ffcc00" />
<path
   d="M75.413,68.945c-0.147,0.21-0.316,0.4-0.47,0.605l-0.023-0.053l-0.931,1.126c-1,1.212-2.126,2.379-3.289,3.442  c-0.597,0.536-1.168,1.107-1.801,1.597c-0.212,0.162-0.411,0.34-0.626,0.5l-1.093,0.802l17.309,8.369l-8.281-17.495L75.413,68.945z"
   id="path4489"
   style="fill:#ffcc00" />
<path
   d="M30.035,75.682l0.062-0.029l-1.096-0.931c-1.431-1.211-2.792-2.588-3.991-4.033l-0.925-1.111l-0.029,0.062  c-0.176-0.234-0.369-0.455-0.539-0.693l-0.798-1.114l-0.582,1.242l-7.601,16.231l17.295-8.268l-1.109-0.809  C30.486,76.059,30.265,75.862,30.035,75.682z"
   id="path4491"
   style="fill:#ffcc00" />
<path
   d="M72.22,66.818c3.675-5.083,5.455-10.983,5.455-16.826c0-8.768-3.993-17.423-11.521-23.006  c-5.028-3.726-10.864-5.52-16.647-5.52c-8.672,0-17.233,4.034-22.751,11.65c-3.687,5.07-5.461,10.979-5.461,16.827  c0,8.765,3.991,17.425,11.525,23.005c5.015,3.716,10.859,5.518,16.641,5.518C58.133,78.467,66.699,74.43,72.22,66.818z"
   id="path4493"
   style="fill:#ff6600" />
<text
   xml:space="preserve"
   style="font-size:40px;font-style:normal;font-variant:normal;font-weight:bold;font-stretch:normal;text-align:end;line-height:125%;letter-spacing:0px;word-spacing:0px;text-anchor:end;fill:#000000;fill-opacity:1;stroke:none;font-family:Arial;-inkscape-font-specification:Arial Bold"
   x="97.124313"
   y="52.063747"
   id="text4540"
   sodipodi:linespacing="125%"><tspan
     sodipodi:role="line"
     id="tspan4542"
     x="97.124313"
     y="52.063747">{{temp}}°</tspan></text>

</svg>